<svg xmlns="http://www.w3.org/2000/svg" width="1113" height="946" font-family="Helvetica, Arial, sans-serif" font-size="11">
<rect width="100%" height="100%" fill="#ffffff"/>
<defs><marker id="tri" viewBox="0 0 10 10" refX="10" refY="5" markerWidth="11" markerHeight="11" orient="auto"><path d="M0,0 L10,5 L0,10 z" fill="#ffffff" stroke="#34495e"/></marker></defs>
<text x="20" y="30" font-size="17" font-weight="bold" fill="#1d2b3a">Arrangement hierarchy - what each level adds (- attribute, + class constant, () method)</text>
<polyline points="422,412 422,389 556,389 556,366" fill="none" stroke="#34495e" marker-end="url(#tri)"/>
<polyline points="154,736 154,587 422,587 422,564" fill="none" stroke="#34495e" marker-end="url(#tri)"/>
<polyline points="422,736 422,587 422,587 422,564" fill="none" stroke="#34495e" marker-end="url(#tri)"/>
<polyline points="690,736 690,587 422,587 422,564" fill="none" stroke="#34495e" marker-end="url(#tri)"/>
<polyline points="958,412 958,389 556,389 556,366" fill="none" stroke="#34495e" marker-end="url(#tri)"/>
<rect x="431" y="60" width="250" height="306" fill="#f4f8fb" stroke="#34495e"/>
<rect x="431" y="60" width="250" height="22" fill="#d8e6f3" stroke="#34495e"/>
<text x="556" y="75" text-anchor="middle" font-weight="bold" font-size="12" fill="#1d2b3a">Arrangement</text>
<text x="437" y="96" fill="#1d2b3a">+ prefix</text>
<text x="437" y="110" fill="#1d2b3a">+ PRODUCT_CATEGORY</text>
<text x="437" y="124" fill="#1d2b3a">+ USABLE_STATUSES</text>
<text x="437" y="138" fill="#1d2b3a">- number</text>
<text x="437" y="152" fill="#1d2b3a">- product</text>
<text x="437" y="166" fill="#1d2b3a">- terms</text>
<text x="437" y="180" fill="#1d2b3a">- terms_history</text>
<text x="437" y="194" fill="#1d2b3a">- holders</text>
<text x="437" y="208" fill="#1d2b3a">- opened_on</text>
<text x="437" y="222" fill="#1d2b3a">- opened_at_branch</text>
<text x="437" y="236" fill="#1d2b3a">- servicing_history</text>
<text x="437" y="250" fill="#1d2b3a">- status</text>
<text x="437" y="264" fill="#1d2b3a">- restrictions</text>
<text x="437" y="278" fill="#1d2b3a">- archived_on</text>
<line x1="431" y1="283" x2="681" y2="283" stroke="#34495e"/>
<text x="437" y="296" fill="#1d2b3a">terms_on()</text>
<text x="437" y="310" fill="#1d2b3a">migrate_terms()</text>
<text x="437" y="324" fill="#1d2b3a">servicing_branch_on()</text>
<text x="437" y="338" fill="#1d2b3a">move_servicing()</text>
<text x="437" y="352" fill="#1d2b3a">ensure_usable()</text>
<rect x="297" y="412" width="250" height="152" fill="#f4f8fb" stroke="#34495e"/>
<rect x="297" y="412" width="250" height="22" fill="#d8e6f3" stroke="#34495e"/>
<text x="422" y="427" text-anchor="middle" font-weight="bold" font-size="12" fill="#1d2b3a">DepositAccount</text>
<text x="303" y="448" fill="#1d2b3a">+ prefix</text>
<text x="303" y="462" fill="#1d2b3a">- entries</text>
<text x="303" y="476" fill="#1d2b3a">- holds</text>
<line x1="297" y1="481" x2="547" y2="481" stroke="#34495e"/>
<text x="303" y="494" fill="#1d2b3a">ledger_balance()</text>
<text x="303" y="508" fill="#1d2b3a">held_amount()</text>
<text x="303" y="522" fill="#1d2b3a">overdraft_limit()</text>
<text x="303" y="536" fill="#1d2b3a">available_balance()</text>
<text x="303" y="550" fill="#1d2b3a">check_debit()</text>
<rect x="29" y="736" width="250" height="82" fill="#f4f8fb" stroke="#34495e"/>
<rect x="29" y="736" width="250" height="22" fill="#d8e6f3" stroke="#34495e"/>
<text x="154" y="751" text-anchor="middle" font-weight="bold" font-size="12" fill="#1d2b3a">CurrentAccount</text>
<text x="35" y="772" fill="#1d2b3a">+ prefix</text>
<text x="35" y="786" fill="#1d2b3a">+ PRODUCT_CATEGORY</text>
<line x1="29" y1="791" x2="279" y2="791" stroke="#34495e"/>
<text x="35" y="804" fill="#9c3d10">overdraft_limit()  [override]</text>
<rect x="297" y="736" width="250" height="180" fill="#f4f8fb" stroke="#34495e"/>
<rect x="297" y="736" width="250" height="22" fill="#d8e6f3" stroke="#34495e"/>
<text x="422" y="751" text-anchor="middle" font-weight="bold" font-size="12" fill="#1d2b3a">FixedTermDeposit</text>
<text x="303" y="772" fill="#1d2b3a">+ prefix</text>
<text x="303" y="786" fill="#1d2b3a">+ PRODUCT_CATEGORY</text>
<text x="303" y="800" fill="#1d2b3a">- term_months</text>
<text x="303" y="814" fill="#1d2b3a">- annual_rate</text>
<text x="303" y="828" fill="#1d2b3a">- maturity_on</text>
<text x="303" y="842" fill="#1d2b3a">- payout_account</text>
<line x1="297" y1="847" x2="547" y2="847" stroke="#34495e"/>
<text x="303" y="860" fill="#1d2b3a">principal()</text>
<text x="303" y="874" fill="#1d2b3a">maturity_interest()</text>
<text x="303" y="888" fill="#9c3d10">ensure_usable()  [override]</text>
<text x="303" y="902" fill="#9c3d10">check_debit()  [override]</text>
<rect x="565" y="736" width="250" height="96" fill="#f4f8fb" stroke="#34495e"/>
<rect x="565" y="736" width="250" height="22" fill="#d8e6f3" stroke="#34495e"/>
<text x="690" y="751" text-anchor="middle" font-weight="bold" font-size="12" fill="#1d2b3a">SavingsAccount</text>
<text x="571" y="772" fill="#1d2b3a">+ prefix</text>
<text x="571" y="786" fill="#1d2b3a">+ PRODUCT_CATEGORY</text>
<line x1="565" y1="791" x2="815" y2="791" stroke="#34495e"/>
<text x="571" y="804" fill="#1d2b3a">withdrawals_in_month()</text>
<text x="571" y="818" fill="#9c3d10">check_debit()  [override]</text>
<rect x="833" y="412" width="250" height="278" fill="#f4f8fb" stroke="#34495e"/>
<rect x="833" y="412" width="250" height="22" fill="#d8e6f3" stroke="#34495e"/>
<text x="958" y="427" text-anchor="middle" font-weight="bold" font-size="12" fill="#1d2b3a">FinancingAgreement</text>
<text x="839" y="448" fill="#1d2b3a">+ prefix</text>
<text x="839" y="462" fill="#1d2b3a">+ PRODUCT_CATEGORY</text>
<text x="839" y="476" fill="#1d2b3a">+ USABLE_STATUSES</text>
<text x="839" y="490" fill="#1d2b3a">- application</text>
<text x="839" y="504" fill="#1d2b3a">- principal</text>
<text x="839" y="518" fill="#1d2b3a">- settlement_account</text>
<text x="839" y="532" fill="#1d2b3a">- schedules</text>
<text x="839" y="546" fill="#1d2b3a">- transactions</text>
<text x="839" y="560" fill="#1d2b3a">- restructure_approvals</text>
<line x1="833" y1="565" x2="1083" y2="565" stroke="#34495e"/>
<text x="839" y="578" fill="#1d2b3a">current_schedule()</text>
<text x="839" y="592" fill="#1d2b3a">outstanding_principal()</text>
<text x="839" y="606" fill="#1d2b3a">outstanding_total()</text>
<text x="839" y="620" fill="#1d2b3a">overdue_installments()</text>
<text x="839" y="634" fill="#1d2b3a">overdue_interest()</text>
<text x="839" y="648" fill="#1d2b3a">build_schedule()</text>
<text x="839" y="662" fill="#1d2b3a">allocate()</text>
<text x="839" y="676" fill="#1d2b3a">settlement_quote()</text>
</svg>